<mxfile host="app.diagrams.net" agent="Mozilla/5.0 (X11; Linux x86_64) AppleWebKit/537.36 (KHTML, like Gecko) Chrome/131.0.0.0 Safari/537.36" version="25.0.3">
  <diagram id="prtHgNgQTEPvFCAcTncT" name="Page-1">
    <mxGraphModel dx="469" dy="277" grid="1" gridSize="10" guides="1" tooltips="1" connect="1" arrows="1" fold="1" page="1" pageScale="1" pageWidth="827" pageHeight="1169" math="0" shadow="0">
      <root>
        <mxCell id="0" />
        <mxCell id="1" parent="0" />
        <mxCell id="r1WK100zrDsrWjKgUVwP-52" value="" style="rounded=1;whiteSpace=wrap;html=1;direction=south;fillColor=#f5f5f5;fontColor=#333333;strokeColor=#666666;" vertex="1" parent="1">
          <mxGeometry x="80" y="40" width="520" height="780" as="geometry" />
        </mxCell>
        <mxCell id="r1WK100zrDsrWjKgUVwP-15" value="" style="edgeStyle=orthogonalEdgeStyle;rounded=0;orthogonalLoop=1;jettySize=auto;html=1;" edge="1" parent="1" source="0TgMC8psudvFYqhx4DPe-70" target="r1WK100zrDsrWjKgUVwP-14">
          <mxGeometry relative="1" as="geometry" />
        </mxCell>
        <mxCell id="0TgMC8psudvFYqhx4DPe-70" value="" style="shape=parallelogram;perimeter=parallelogramPerimeter;whiteSpace=wrap;html=1;fixedSize=1;movable=1;resizable=1;rotatable=1;deletable=1;editable=1;locked=0;connectable=1;direction=east;" parent="1" vertex="1">
          <mxGeometry x="187.5" y="470" width="90" height="50" as="geometry" />
        </mxCell>
        <mxCell id="r1WK100zrDsrWjKgUVwP-33" value="" style="edgeStyle=orthogonalEdgeStyle;rounded=0;orthogonalLoop=1;jettySize=auto;html=1;" edge="1" parent="1" source="0TgMC8psudvFYqhx4DPe-69" target="r1WK100zrDsrWjKgUVwP-31">
          <mxGeometry relative="1" as="geometry" />
        </mxCell>
        <mxCell id="0TgMC8psudvFYqhx4DPe-69" value="" style="shape=parallelogram;perimeter=parallelogramPerimeter;whiteSpace=wrap;html=1;fixedSize=1;movable=1;resizable=1;rotatable=1;deletable=1;editable=1;locked=0;connectable=1;direction=east;" parent="1" vertex="1">
          <mxGeometry x="180" y="460" width="90" height="50" as="geometry" />
        </mxCell>
        <mxCell id="0TgMC8psudvFYqhx4DPe-68" value="" style="shape=parallelogram;perimeter=parallelogramPerimeter;whiteSpace=wrap;html=1;fixedSize=1;movable=1;resizable=1;rotatable=1;deletable=1;editable=1;locked=0;connectable=1;direction=east;" parent="1" vertex="1">
          <mxGeometry x="170" y="450" width="90" height="50" as="geometry" />
        </mxCell>
        <mxCell id="0TgMC8psudvFYqhx4DPe-67" value="" style="shape=parallelogram;perimeter=parallelogramPerimeter;whiteSpace=wrap;html=1;fixedSize=1;movable=1;resizable=1;rotatable=1;deletable=1;editable=1;locked=0;connectable=1;direction=east;" parent="1" vertex="1">
          <mxGeometry x="160" y="440" width="90" height="50" as="geometry" />
        </mxCell>
        <mxCell id="0TgMC8psudvFYqhx4DPe-66" value="" style="shape=parallelogram;perimeter=parallelogramPerimeter;whiteSpace=wrap;html=1;fixedSize=1;movable=1;resizable=1;rotatable=1;deletable=1;editable=1;locked=0;connectable=1;direction=east;" parent="1" vertex="1">
          <mxGeometry x="150" y="430" width="90" height="50" as="geometry" />
        </mxCell>
        <mxCell id="0TgMC8psudvFYqhx4DPe-57" value="" style="shape=parallelogram;perimeter=parallelogramPerimeter;whiteSpace=wrap;html=1;fixedSize=1;" parent="1" vertex="1">
          <mxGeometry x="207.5" y="140" width="120" height="60" as="geometry" />
        </mxCell>
        <mxCell id="0TgMC8psudvFYqhx4DPe-7" value="" style="shape=parallelogram;perimeter=parallelogramPerimeter;whiteSpace=wrap;html=1;fixedSize=1;" parent="1" vertex="1">
          <mxGeometry x="200" y="130" width="120" height="60" as="geometry" />
        </mxCell>
        <mxCell id="0TgMC8psudvFYqhx4DPe-8" value="" style="shape=parallelogram;perimeter=parallelogramPerimeter;whiteSpace=wrap;html=1;fixedSize=1;" parent="1" vertex="1">
          <mxGeometry x="190" y="120" width="120" height="60" as="geometry" />
        </mxCell>
        <mxCell id="0TgMC8psudvFYqhx4DPe-36" style="edgeStyle=orthogonalEdgeStyle;rounded=0;orthogonalLoop=1;jettySize=auto;html=1;exitX=0;exitY=0.5;exitDx=0;exitDy=0;entryX=0;entryY=0.5;entryDx=0;entryDy=0;" parent="1" source="0TgMC8psudvFYqhx4DPe-9" target="0TgMC8psudvFYqhx4DPe-16" edge="1">
          <mxGeometry relative="1" as="geometry" />
        </mxCell>
        <mxCell id="0TgMC8psudvFYqhx4DPe-9" value="" style="shape=parallelogram;perimeter=parallelogramPerimeter;whiteSpace=wrap;html=1;fixedSize=1;direction=west;" parent="1" vertex="1">
          <mxGeometry x="180" y="110" width="120" height="60" as="geometry" />
        </mxCell>
        <mxCell id="0TgMC8psudvFYqhx4DPe-10" value="" style="shape=parallelogram;perimeter=parallelogramPerimeter;whiteSpace=wrap;html=1;fixedSize=1;" parent="1" vertex="1">
          <mxGeometry x="170" y="100" width="120" height="60" as="geometry" />
        </mxCell>
        <mxCell id="0TgMC8psudvFYqhx4DPe-73" value="" style="edgeStyle=orthogonalEdgeStyle;rounded=0;orthogonalLoop=1;jettySize=auto;html=1;" parent="1" source="0TgMC8psudvFYqhx4DPe-12" target="0TgMC8psudvFYqhx4DPe-72" edge="1">
          <mxGeometry relative="1" as="geometry" />
        </mxCell>
        <mxCell id="0TgMC8psudvFYqhx4DPe-94" style="edgeStyle=orthogonalEdgeStyle;rounded=0;orthogonalLoop=1;jettySize=auto;html=1;exitX=0.5;exitY=1;exitDx=0;exitDy=0;" parent="1" source="0TgMC8psudvFYqhx4DPe-12" edge="1">
          <mxGeometry relative="1" as="geometry">
            <mxPoint x="267.6190476190476" y="329.80952380952374" as="targetPoint" />
          </mxGeometry>
        </mxCell>
        <mxCell id="r1WK100zrDsrWjKgUVwP-13" value="" style="edgeStyle=orthogonalEdgeStyle;rounded=0;orthogonalLoop=1;jettySize=auto;html=1;" edge="1" parent="1" source="0TgMC8psudvFYqhx4DPe-12" target="0TgMC8psudvFYqhx4DPe-61">
          <mxGeometry relative="1" as="geometry">
            <Array as="points">
              <mxPoint x="237" y="400" />
              <mxPoint x="200" y="400" />
            </Array>
          </mxGeometry>
        </mxCell>
        <mxCell id="0TgMC8psudvFYqhx4DPe-12" value="" style="shape=parallelogram;perimeter=parallelogramPerimeter;whiteSpace=wrap;html=1;fixedSize=1;movable=1;resizable=1;rotatable=1;deletable=1;editable=1;locked=0;connectable=1;direction=north;" parent="1" vertex="1">
          <mxGeometry x="207.5" y="270" width="60" height="120" as="geometry" />
        </mxCell>
        <mxCell id="0TgMC8psudvFYqhx4DPe-13" value="" style="shape=parallelogram;perimeter=parallelogramPerimeter;whiteSpace=wrap;html=1;fixedSize=1;direction=south;movable=1;resizable=1;rotatable=1;deletable=1;editable=1;locked=0;connectable=1;" parent="1" vertex="1">
          <mxGeometry x="200" y="260" width="60" height="120" as="geometry" />
        </mxCell>
        <mxCell id="0TgMC8psudvFYqhx4DPe-14" value="" style="shape=parallelogram;perimeter=parallelogramPerimeter;whiteSpace=wrap;html=1;fixedSize=1;movable=1;resizable=1;rotatable=1;deletable=1;editable=1;locked=0;connectable=1;direction=north;" parent="1" vertex="1">
          <mxGeometry x="190" y="250" width="60" height="120" as="geometry" />
        </mxCell>
        <mxCell id="0TgMC8psudvFYqhx4DPe-16" value="" style="rounded=0;whiteSpace=wrap;html=1;" parent="1" vertex="1">
          <mxGeometry x="380" y="110" width="90" height="50" as="geometry" />
        </mxCell>
        <mxCell id="0TgMC8psudvFYqhx4DPe-17" value="email &#39;s matrix" style="text;html=1;align=center;verticalAlign=middle;whiteSpace=wrap;rounded=0;" parent="1" vertex="1">
          <mxGeometry x="400" y="75" width="80" height="30" as="geometry" />
        </mxCell>
        <mxCell id="0TgMC8psudvFYqhx4DPe-19" value="" style="shape=crossbar;whiteSpace=wrap;html=1;rounded=1;direction=south;" parent="1" vertex="1">
          <mxGeometry x="480" y="110" width="10" height="50" as="geometry" />
        </mxCell>
        <mxCell id="0TgMC8psudvFYqhx4DPe-21" value="&lt;font style=&quot;font-size: 9px;&quot;&gt;时间序列的长度&lt;/font&gt;" style="text;html=1;align=center;verticalAlign=middle;whiteSpace=wrap;rounded=0;" parent="1" vertex="1">
          <mxGeometry x="470" y="115" width="110" height="30" as="geometry" />
        </mxCell>
        <mxCell id="0TgMC8psudvFYqhx4DPe-26" value="" style="shape=crossbar;whiteSpace=wrap;html=1;rounded=1;direction=west;" parent="1" vertex="1">
          <mxGeometry x="380" y="175" width="90" height="5" as="geometry" />
        </mxCell>
        <mxCell id="0TgMC8psudvFYqhx4DPe-31" value="&lt;font style=&quot;font-size: 9px;&quot;&gt;时间步的特征长度&lt;/font&gt;" style="text;html=1;align=center;verticalAlign=middle;whiteSpace=wrap;rounded=0;" parent="1" vertex="1">
          <mxGeometry x="370" y="185" width="110" height="30" as="geometry" />
        </mxCell>
        <mxCell id="0TgMC8psudvFYqhx4DPe-33" value="&lt;font style=&quot;font-size: 8px;&quot;&gt;即句子向量的长度&lt;/font&gt;" style="text;html=1;align=center;verticalAlign=middle;whiteSpace=wrap;rounded=0;" parent="1" vertex="1">
          <mxGeometry x="390" y="215" width="130" height="10" as="geometry" />
        </mxCell>
        <mxCell id="0TgMC8psudvFYqhx4DPe-34" value="&lt;font style=&quot;font-size: 8px;&quot;&gt;即邮件中句子的数量&lt;/font&gt;" style="text;html=1;align=center;verticalAlign=middle;whiteSpace=wrap;rounded=0;" parent="1" vertex="1">
          <mxGeometry x="490" y="145" width="130" height="10" as="geometry" />
        </mxCell>
        <mxCell id="0TgMC8psudvFYqhx4DPe-37" value="批数" style="text;html=1;align=center;verticalAlign=middle;whiteSpace=wrap;rounded=0;" parent="1" vertex="1">
          <mxGeometry x="70" y="125" width="40" height="30" as="geometry" />
        </mxCell>
        <mxCell id="0TgMC8psudvFYqhx4DPe-56" value="" style="shape=parallelogram;perimeter=parallelogramPerimeter;whiteSpace=wrap;html=1;fixedSize=1;" parent="1" vertex="1">
          <mxGeometry x="155" y="85" width="120" height="60" as="geometry" />
        </mxCell>
        <mxCell id="0TgMC8psudvFYqhx4DPe-58" value="" style="shape=parallelogram;perimeter=parallelogramPerimeter;whiteSpace=wrap;html=1;fixedSize=1;movable=1;resizable=1;rotatable=1;deletable=1;editable=1;locked=0;connectable=1;direction=north;" parent="1" vertex="1">
          <mxGeometry x="180" y="240" width="60" height="120" as="geometry" />
        </mxCell>
        <mxCell id="0TgMC8psudvFYqhx4DPe-59" value="" style="shape=parallelogram;perimeter=parallelogramPerimeter;whiteSpace=wrap;html=1;fixedSize=1;movable=1;resizable=1;rotatable=1;deletable=1;editable=1;locked=0;connectable=1;direction=north;" parent="1" vertex="1">
          <mxGeometry x="170" y="225" width="60" height="120" as="geometry" />
        </mxCell>
        <mxCell id="0TgMC8psudvFYqhx4DPe-61" value="" style="shape=parallelogram;perimeter=parallelogramPerimeter;whiteSpace=wrap;html=1;fixedSize=1;movable=1;resizable=1;rotatable=1;deletable=1;editable=1;locked=0;connectable=1;direction=east;" parent="1" vertex="1">
          <mxGeometry x="140" y="420" width="90" height="50" as="geometry" />
        </mxCell>
        <mxCell id="0TgMC8psudvFYqhx4DPe-35" value="" style="shape=crossbar;whiteSpace=wrap;html=1;rounded=1;direction=south;" parent="1" vertex="1">
          <mxGeometry x="130" y="100" width="10" height="100" as="geometry" />
        </mxCell>
        <mxCell id="0TgMC8psudvFYqhx4DPe-72" value="" style="rounded=0;whiteSpace=wrap;html=1;direction=south;" parent="1" vertex="1">
          <mxGeometry x="344" y="280" width="50" height="85" as="geometry" />
        </mxCell>
        <mxCell id="0TgMC8psudvFYqhx4DPe-74" value="&lt;font size=&quot;1&quot;&gt;频道&lt;/font&gt;" style="text;html=1;align=center;verticalAlign=middle;whiteSpace=wrap;rounded=0;" parent="1" vertex="1">
          <mxGeometry x="310" y="380" width="110" height="30" as="geometry" />
        </mxCell>
        <mxCell id="0TgMC8psudvFYqhx4DPe-75" value="&lt;font size=&quot;1&quot;&gt;长度&lt;/font&gt;" style="text;html=1;align=center;verticalAlign=middle;whiteSpace=wrap;rounded=0;" parent="1" vertex="1">
          <mxGeometry x="394" y="285" width="35" height="30" as="geometry" />
        </mxCell>
        <mxCell id="0TgMC8psudvFYqhx4DPe-78" value="" style="edgeStyle=orthogonalEdgeStyle;rounded=0;orthogonalLoop=1;jettySize=auto;html=1;" parent="1" source="0TgMC8psudvFYqhx4DPe-76" target="0TgMC8psudvFYqhx4DPe-77" edge="1">
          <mxGeometry relative="1" as="geometry" />
        </mxCell>
        <mxCell id="0TgMC8psudvFYqhx4DPe-76" value="conv1d" style="verticalLabelPosition=bottom;verticalAlign=top;html=1;shape=mxgraph.basic.patternFillRect;fillStyle=diag;step=5;fillStrokeWidth=0.2;fillStrokeColor=#dddddd;" parent="1" vertex="1">
          <mxGeometry x="460" y="285" width="60" height="15" as="geometry" />
        </mxCell>
        <mxCell id="0TgMC8psudvFYqhx4DPe-82" value="" style="edgeStyle=orthogonalEdgeStyle;rounded=0;orthogonalLoop=1;jettySize=auto;html=1;" parent="1" source="0TgMC8psudvFYqhx4DPe-77" target="0TgMC8psudvFYqhx4DPe-81" edge="1">
          <mxGeometry relative="1" as="geometry" />
        </mxCell>
        <mxCell id="0TgMC8psudvFYqhx4DPe-77" value="relu" style="whiteSpace=wrap;html=1;verticalAlign=top;fillStyle=diag;" parent="1" vertex="1">
          <mxGeometry x="457.5" y="332.5" width="65" height="12.5" as="geometry" />
        </mxCell>
        <mxCell id="0TgMC8psudvFYqhx4DPe-89" style="edgeStyle=orthogonalEdgeStyle;rounded=0;orthogonalLoop=1;jettySize=auto;html=1;" parent="1" source="0TgMC8psudvFYqhx4DPe-81" target="0TgMC8psudvFYqhx4DPe-72" edge="1">
          <mxGeometry relative="1" as="geometry">
            <Array as="points">
              <mxPoint x="369" y="384" />
            </Array>
          </mxGeometry>
        </mxCell>
        <mxCell id="0TgMC8psudvFYqhx4DPe-81" value="maxpooling" style="whiteSpace=wrap;html=1;verticalAlign=top;fillStyle=diag;" parent="1" vertex="1">
          <mxGeometry x="457.5" y="377.5" width="65" height="12.5" as="geometry" />
        </mxCell>
        <mxCell id="0TgMC8psudvFYqhx4DPe-90" style="edgeStyle=orthogonalEdgeStyle;rounded=0;orthogonalLoop=1;jettySize=auto;html=1;entryX=0.5;entryY=0;entryDx=0;entryDy=0;entryPerimeter=0;exitX=0;exitY=0.5;exitDx=0;exitDy=0;" parent="1" source="0TgMC8psudvFYqhx4DPe-72" target="0TgMC8psudvFYqhx4DPe-76" edge="1">
          <mxGeometry relative="1" as="geometry" />
        </mxCell>
        <mxCell id="0TgMC8psudvFYqhx4DPe-93" value="X2" style="text;html=1;align=center;verticalAlign=middle;whiteSpace=wrap;rounded=0;" parent="1" vertex="1">
          <mxGeometry x="400" y="350" width="60" height="30" as="geometry" />
        </mxCell>
        <mxCell id="0TgMC8psudvFYqhx4DPe-15" value="" style="edgeStyle=orthogonalEdgeStyle;rounded=0;orthogonalLoop=1;jettySize=auto;html=1;entryX=1;entryY=1;entryDx=0;entryDy=0;" parent="1" source="0TgMC8psudvFYqhx4DPe-7" target="0TgMC8psudvFYqhx4DPe-14" edge="1">
          <mxGeometry relative="1" as="geometry" />
        </mxCell>
        <mxCell id="r1WK100zrDsrWjKgUVwP-14" value="" style="whiteSpace=wrap;html=1;resizable=1;" vertex="1" parent="1">
          <mxGeometry x="342.5" y="465" width="57.5" height="35" as="geometry" />
        </mxCell>
        <mxCell id="r1WK100zrDsrWjKgUVwP-21" value="" style="edgeStyle=orthogonalEdgeStyle;rounded=0;orthogonalLoop=1;jettySize=auto;html=1;" edge="1" parent="1" source="r1WK100zrDsrWjKgUVwP-19" target="r1WK100zrDsrWjKgUVwP-20">
          <mxGeometry relative="1" as="geometry" />
        </mxCell>
        <mxCell id="r1WK100zrDsrWjKgUVwP-19" value="lstm" style="verticalLabelPosition=bottom;verticalAlign=top;html=1;shape=mxgraph.basic.patternFillRect;fillStyle=diag;step=5;fillStrokeWidth=0.2;fillStrokeColor=#dddddd;" vertex="1" parent="1">
          <mxGeometry x="450" y="455" width="60" height="15" as="geometry" />
        </mxCell>
        <mxCell id="r1WK100zrDsrWjKgUVwP-53" style="edgeStyle=orthogonalEdgeStyle;rounded=0;orthogonalLoop=1;jettySize=auto;html=1;" edge="1" parent="1" source="r1WK100zrDsrWjKgUVwP-20" target="r1WK100zrDsrWjKgUVwP-14">
          <mxGeometry relative="1" as="geometry">
            <Array as="points">
              <mxPoint x="480" y="540" />
              <mxPoint x="371" y="540" />
            </Array>
          </mxGeometry>
        </mxCell>
        <mxCell id="r1WK100zrDsrWjKgUVwP-20" value="lstm" style="verticalLabelPosition=bottom;verticalAlign=top;html=1;shape=mxgraph.basic.patternFillRect;fillStyle=diag;step=5;fillStrokeWidth=0.2;fillStrokeColor=#dddddd;" vertex="1" parent="1">
          <mxGeometry x="450" y="510" width="60" height="15" as="geometry" />
        </mxCell>
        <mxCell id="r1WK100zrDsrWjKgUVwP-23" style="edgeStyle=orthogonalEdgeStyle;rounded=0;orthogonalLoop=1;jettySize=auto;html=1;entryX=0.5;entryY=0;entryDx=0;entryDy=0;entryPerimeter=0;" edge="1" parent="1" source="r1WK100zrDsrWjKgUVwP-14" target="r1WK100zrDsrWjKgUVwP-19">
          <mxGeometry relative="1" as="geometry">
            <Array as="points">
              <mxPoint x="371" y="435" />
              <mxPoint x="480" y="435" />
            </Array>
          </mxGeometry>
        </mxCell>
        <mxCell id="r1WK100zrDsrWjKgUVwP-34" value="" style="edgeStyle=orthogonalEdgeStyle;rounded=0;orthogonalLoop=1;jettySize=auto;html=1;" edge="1" parent="1" source="r1WK100zrDsrWjKgUVwP-26" target="r1WK100zrDsrWjKgUVwP-32">
          <mxGeometry relative="1" as="geometry" />
        </mxCell>
        <mxCell id="r1WK100zrDsrWjKgUVwP-26" value="" style="shape=parallelogram;perimeter=parallelogramPerimeter;whiteSpace=wrap;html=1;fixedSize=1;movable=1;resizable=1;rotatable=1;deletable=1;editable=1;locked=0;connectable=1;direction=east;" vertex="1" parent="1">
          <mxGeometry x="202.5" y="590" width="83" height="50" as="geometry" />
        </mxCell>
        <mxCell id="r1WK100zrDsrWjKgUVwP-36" value="" style="edgeStyle=orthogonalEdgeStyle;rounded=0;orthogonalLoop=1;jettySize=auto;html=1;" edge="1" parent="1" source="r1WK100zrDsrWjKgUVwP-27" target="r1WK100zrDsrWjKgUVwP-35">
          <mxGeometry relative="1" as="geometry" />
        </mxCell>
        <mxCell id="r1WK100zrDsrWjKgUVwP-27" value="" style="shape=parallelogram;perimeter=parallelogramPerimeter;whiteSpace=wrap;html=1;fixedSize=1;movable=1;resizable=1;rotatable=1;deletable=1;editable=1;locked=0;connectable=1;direction=east;" vertex="1" parent="1">
          <mxGeometry x="195" y="580" width="83" height="50" as="geometry" />
        </mxCell>
        <mxCell id="r1WK100zrDsrWjKgUVwP-28" value="" style="shape=parallelogram;perimeter=parallelogramPerimeter;whiteSpace=wrap;html=1;fixedSize=1;movable=1;resizable=1;rotatable=1;deletable=1;editable=1;locked=0;connectable=1;direction=east;" vertex="1" parent="1">
          <mxGeometry x="185" y="570" width="83" height="50" as="geometry" />
        </mxCell>
        <mxCell id="r1WK100zrDsrWjKgUVwP-29" value="" style="shape=parallelogram;perimeter=parallelogramPerimeter;whiteSpace=wrap;html=1;fixedSize=1;movable=1;resizable=1;rotatable=1;deletable=1;editable=1;locked=0;connectable=1;direction=east;" vertex="1" parent="1">
          <mxGeometry x="175" y="560" width="83" height="50" as="geometry" />
        </mxCell>
        <mxCell id="r1WK100zrDsrWjKgUVwP-30" value="" style="shape=parallelogram;perimeter=parallelogramPerimeter;whiteSpace=wrap;html=1;fixedSize=1;movable=1;resizable=1;rotatable=1;deletable=1;editable=1;locked=0;connectable=1;direction=east;" vertex="1" parent="1">
          <mxGeometry x="165" y="550" width="83" height="50" as="geometry" />
        </mxCell>
        <mxCell id="r1WK100zrDsrWjKgUVwP-31" value="" style="shape=parallelogram;perimeter=parallelogramPerimeter;whiteSpace=wrap;html=1;fixedSize=1;movable=1;resizable=1;rotatable=1;deletable=1;editable=1;locked=0;connectable=1;direction=east;" vertex="1" parent="1">
          <mxGeometry x="155" y="540" width="83" height="50" as="geometry" />
        </mxCell>
        <mxCell id="r1WK100zrDsrWjKgUVwP-32" value="" style="rounded=0;whiteSpace=wrap;html=1;" vertex="1" parent="1">
          <mxGeometry x="166.5" y="690" width="120" height="10" as="geometry" />
        </mxCell>
        <mxCell id="r1WK100zrDsrWjKgUVwP-38" value="" style="edgeStyle=orthogonalEdgeStyle;rounded=0;orthogonalLoop=1;jettySize=auto;html=1;" edge="1" parent="1" source="r1WK100zrDsrWjKgUVwP-35" target="r1WK100zrDsrWjKgUVwP-37">
          <mxGeometry relative="1" as="geometry" />
        </mxCell>
        <mxCell id="r1WK100zrDsrWjKgUVwP-35" value="" style="whiteSpace=wrap;html=1;resizable=1;" vertex="1" parent="1">
          <mxGeometry x="339.5" y="575" width="30.5" height="35" as="geometry" />
        </mxCell>
        <mxCell id="r1WK100zrDsrWjKgUVwP-39" style="edgeStyle=orthogonalEdgeStyle;rounded=0;orthogonalLoop=1;jettySize=auto;html=1;entryX=0.5;entryY=1;entryDx=0;entryDy=0;" edge="1" parent="1" source="r1WK100zrDsrWjKgUVwP-37" target="r1WK100zrDsrWjKgUVwP-35">
          <mxGeometry relative="1" as="geometry">
            <Array as="points">
              <mxPoint x="450" y="630" />
              <mxPoint x="355" y="630" />
            </Array>
          </mxGeometry>
        </mxCell>
        <mxCell id="r1WK100zrDsrWjKgUVwP-37" value="fc" style="whiteSpace=wrap;html=1;resizable=1;" vertex="1" parent="1">
          <mxGeometry x="425.25" y="583.75" width="64.75" height="17.5" as="geometry" />
        </mxCell>
        <mxCell id="r1WK100zrDsrWjKgUVwP-40" value="&lt;font style=&quot;font-size: 7px;&quot;&gt;频道融合&lt;/font&gt;" style="text;html=1;align=center;verticalAlign=middle;whiteSpace=wrap;rounded=0;" vertex="1" parent="1">
          <mxGeometry x="510" y="277.5" width="60" height="30" as="geometry" />
        </mxCell>
        <mxCell id="r1WK100zrDsrWjKgUVwP-41" value="&lt;span style=&quot;font-size: 7px;&quot;&gt;尺度变化&lt;/span&gt;" style="text;html=1;align=center;verticalAlign=middle;whiteSpace=wrap;rounded=0;" vertex="1" parent="1">
          <mxGeometry x="510" y="368.75" width="60" height="30" as="geometry" />
        </mxCell>
        <mxCell id="r1WK100zrDsrWjKgUVwP-46" value="" style="shape=crossbar;whiteSpace=wrap;html=1;rounded=1;direction=west;" vertex="1" parent="1">
          <mxGeometry x="170" y="720" width="115.5" height="5" as="geometry" />
        </mxCell>
        <mxCell id="r1WK100zrDsrWjKgUVwP-47" value="批数" style="text;html=1;align=center;verticalAlign=middle;whiteSpace=wrap;rounded=0;" vertex="1" parent="1">
          <mxGeometry x="196.5" y="730" width="60" height="30" as="geometry" />
        </mxCell>
        <mxCell id="r1WK100zrDsrWjKgUVwP-48" value="预测结果" style="text;html=1;align=center;verticalAlign=middle;whiteSpace=wrap;rounded=0;" vertex="1" parent="1">
          <mxGeometry x="290" y="675" width="170" height="40" as="geometry" />
        </mxCell>
        <mxCell id="r1WK100zrDsrWjKgUVwP-51" style="edgeStyle=orthogonalEdgeStyle;rounded=0;orthogonalLoop=1;jettySize=auto;html=1;" edge="1" parent="1">
          <mxGeometry relative="1" as="geometry">
            <mxPoint x="751" y="410.5" as="sourcePoint" />
            <mxPoint x="751" y="430.5" as="targetPoint" />
          </mxGeometry>
        </mxCell>
      </root>
    </mxGraphModel>
  </diagram>
</mxfile>
